<svg xmlns="http://www.w3.org/2000/svg" xmlns:xlink="http://www.w3.org/1999/xlink" version="1.1" x="0px" y="0px" viewBox="0 0 100 125" enable-background="new 0 0 100 100" xml:space="preserve"><path fill="#2E161E" d="M17,14.1c-5.8,6.5-6.6,15.7-2.5,22.9c0.1-2.1,0.4-4.2,1.2-6.3C19.4,20.5,30.8,15.3,41,19  c4.6,1.7,8.1,4.9,10.4,8.8c0.2-5.6-2-11.2-6.5-15.2C36.8,5.3,24.3,6,17,14.1z"/><path fill="#2E161E" d="M23.3,74.3c-8.6-6.7-10.2-19.1-3.5-27.7c3-3.9,7.1-6.3,11.5-7.2C26,37.6,20,38,14.8,41  c-9.4,5.5-12.5,17.6-7,27c4.4,7.5,13,11,21.1,9.3C26.9,76.7,25,75.7,23.3,74.3z"/><path fill="#2E161E" d="M65.9,79.4c-9,6.2-21.3,4-27.5-4.9c-2.8-4-3.9-8.7-3.4-13.2c-3.3,4.5-4.7,10.3-3.4,16.2  c2.5,10.6,13.1,17.2,23.7,14.8c8.5-2,14.4-9.1,15.2-17.3C69.2,76.6,67.7,78.1,65.9,79.4z"/><path fill="#2E161E" d="M83.1,35.1c1.2,1.7,2.2,3.6,2.9,5.7c3.2,10.4-2.6,21.5-13,24.7c-4.7,1.4-9.4,1.1-13.6-0.7  c3.3,4.5,8.4,7.6,14.4,8.1c10.9,0.9,20.4-7.3,21.2-18.1C95.7,46.1,90.7,38.3,83.1,35.1z"/><path fill="#2E161E" d="M70.3,6.5c-8.1-3.3-17-0.8-22.4,5.5c2-0.7,4.1-1,6.3-1c10.9,0,19.7,8.9,19.7,19.8c0,4.9-1.8,9.3-4.8,12.8  c5.3-1.8,9.8-5.7,12.1-11.3C85.3,22.1,80.4,10.6,70.3,6.5z"/><path fill="#2E161E" d="M55.2,29.6c-2.2,0-3.2,0.6-5.9,0.6s-3.7-0.6-5.9-0.6c-1.8,0-4.2,1.8-5.3,3c-1.4,1.5-4.3,8.3-4.2,10.5  c0.1,3.4,4,8,4,8s2.2,3.7,2.7,5.1c0.6,1.4,0.9,2.6,0.9,3.5c0.1,0.9,2.2,6.3,7.7,6.3s7.6-5.5,7.7-6.3c0.1-0.9,0.4-2.1,0.9-3.5  c0.6-1.4,2.7-5.1,2.7-5.1s3.9-4.6,4-8c0.1-2.2-2.7-8.9-4.2-10.5C59.4,31.4,57,29.6,55.2,29.6z M45,46.1c-0.4-0.3-0.9-1.4-1.1-2.2  c-0.3-1-1.4-1.7-2.5-1.7c-1.2,0-2.7-0.6-3.5-1.4c-0.7-0.8,0-1.3,1.6-1.2c1.6,0.1,3.6,0.8,4.2,1.5c0.7,0.7,1.4,2.3,1.6,3.5  C45.5,45.7,45.4,46.3,45,46.1z M49.3,60.4c-2.2,0-3.4-0.3-2.8-0.6c0.7-0.3,1.5-0.8,2-1.1c0.4-0.3,1.1-0.3,1.6,0  c0.4,0.3,1.3,0.8,2,1.1C52.7,60.2,51.5,60.4,49.3,60.4z M52.4,53.3c-0.7,0.4-1.6,1.4-2.1,2.2s-1.4,0.8-1.9,0s-1.5-1.8-2.1-2.2  c-0.7-0.4-1.3-1.1-1.4-1.5c-0.1-0.5,0.8-0.5,2.1-0.1s3.4,0.4,4.7,0s2.3-0.4,2.1,0.1C53.7,52.2,53,52.9,52.4,53.3z M60.8,40.7  c-0.8,0.8-2.3,1.3-3.5,1.3c-1.2-0.1-2.3,0.7-2.6,1.6c-0.2,1-0.7,2-1.1,2.2c-0.4,0.3-0.5-0.4-0.3-1.6c0.3-1.2,1-2.8,1.8-3.4  c0.7-0.7,2.6-1.3,4.2-1.4C60.9,39.5,61.6,40.1,60.8,40.7z"/></svg>
